<?xml version="1.0" encoding="UTF-8" standalone="no" ?>
<!DOCTYPE svg PUBLIC "-//W3C//DTD SVG 1.1//EN" "http://www.w3.org/Graphics/SVG/1.1/DTD/svg11.dtd">
<svg xmlns="http://www.w3.org/2000/svg" xmlns:xlink="http://www.w3.org/1999/xlink" version="1.1" width="813" height="813" viewBox="0 0 1080 1080" xml:space="preserve">
<desc>Created with Fabric.js 6.5.3</desc>
<defs>
</defs>
<g transform="matrix(2.5716 0 0 2.5716 591.0152 419.5032)"  >
<path style="stroke: none; stroke-width: 1; stroke-dasharray: none; stroke-linecap: butt; stroke-dashoffset: 0; stroke-linejoin: miter; stroke-miterlimit: 4; fill: rgb(0,0,0); fill-rule: nonzero; opacity: 1;"  transform=" translate(-12.0004, -12)" d="M 21.362 9.354 L 12 9.354 L 12 0.396 C 11.9999 0.2246 11.8895 0.0727 11.7265 0.0197 C 11.5636 -0.0333 11.385 0.0245 11.284 0.163 L 2.203 12.424 L 1.802 12.986 C 1.5682 13.3017 1.5322 13.7222 1.709 14.073 C 1.8858 14.4238 2.2452 14.6451 2.638 14.645 L 12 14.645 L 12 23.604 C 12.0001 23.7754 12.1105 23.9273 12.2735 23.9803 C 12.4364 24.0333 12.615 23.9755 12.716 23.837 L 21.797 11.576 L 22.198 11.014 C 22.4324 10.6983 22.4687 10.2774 22.2919 9.9262 C 22.115 9.575 21.7552 9.3536 21.362 9.354 Z" stroke-linecap="round" />
</g>
<g transform="matrix(2.2364 0 0 2.2364 588.3351 365.8775)"  >
<g style="" vector-effect="non-scaling-stroke"   >
		<g transform="matrix(1 0 0 1 0 0)" id="Layer_1"  >
<path style="stroke: none; stroke-width: 1; stroke-dasharray: none; stroke-linecap: butt; stroke-dashoffset: 0; stroke-linejoin: miter; stroke-miterlimit: 4; fill: rgb(0,0,0); fill-rule: nonzero; opacity: 1;"  transform=" translate(-63.5793, -61.5271)" d="M 100.86 61.414 C 101.213 56.429 101.533 49.645 101.613 45.183 C 101.62 44.774 101.632 42.55 101.628 42.152 C 101.619 41.156 101.594 44.014 101.552 43.065 C 101.485 41.546 101.217 36.287 101.043 34.91 C 100.501 30.625 100.489 28.125 95.87 23.875 C 91.251 19.625 81.565 17.639 79.672 17.164 C 79.462 17.111 79.254 17.062 79.049 17.016 C 74.539 16.009 71.369 16.648 71.369 16.648 C 71.369 16.648 71.367 16.646 71.364 16.644 L 71.364 16.644 C 71.361 16.642 71.357 16.638 71.352 16.633 C 71.35 16.631 71.348 16.629 71.345 16.628 C 71.341 16.624 71.336 16.621 71.331 16.616 C 71.326 16.612 71.321 16.608 71.316 16.604 C 71.311 16.6 71.306 16.597 71.301 16.593 C 71.294 16.588 71.286 16.582 71.277 16.576 C 71.271 16.572 71.265 16.568 71.259 16.564 C 71.248 16.557 71.238 16.549 71.225 16.541 C 71.221 16.538 71.216 16.535 71.212 16.533 C 71.142 16.488 71.045 16.431 70.914 16.364 C 70.911 16.363 70.909 16.361 70.906 16.36 C 70.874 16.344 70.84 16.327 70.805 16.31 C 70.799 16.307 70.794 16.305 70.788 16.302 C 70.752 16.285 70.714 16.267 70.674 16.249 C 70.669 16.246 70.663 16.244 70.657 16.241 C 70.386 16.119 70.019 15.976 69.53 15.82 C 69.529 15.82 69.528 15.82 69.528 15.819 C 69.448 15.793 69.364 15.768 69.277 15.741 C 69.273 15.74 69.268 15.738 69.264 15.737 C 69.177 15.711 69.086 15.684 68.992 15.658 C 68.99 15.657 68.988 15.657 68.986 15.656 C 68.41 15.492 67.702 15.319 66.834 15.144 C 66.817 15.141 66.801 15.137 66.784 15.134 C 66.652 15.108 66.516 15.081 66.377 15.055 C 66.356 15.051 66.335 15.047 66.313 15.043 C 66.171 15.016 66.027 14.99 65.877 14.963 C 65.863 14.96 65.848 14.958 65.834 14.955 C 65.184 14.84 64.461 14.725 63.656 14.613 C 63.648 14.612 63.64 14.611 63.631 14.609 L 63.631 14.609 C 62.629 14.47 61.504 14.336 60.235 14.212 C 50.576 13.265 39.174 20.708 35.552 23.009 C 31.93 25.31 31.134 27.89 31.134 27.89 C 31.134 27.89 28.784 28.366 26.369 31.749 C 24.537 34.316 26.137 56.141 27.016 66.533 L 26.37 93.001 C 26.37 93.011 26.372 93.021 26.372 93.031 L 26.37 93.108 C 26.313 95.463 27.993 98.196 30.105 99.241 L 45.642 106.949 C 47.754 107.994 51.41 108.925 53.766 108.925 L 74.234 108.925 C 76.59 108.925 80.246 107.996 82.358 106.952 L 97.895 99.22 C 100.007 98.175 101.688 95.379 101.63 93.024 L 100.86 61.414 Z M 95.153 93.882 L 79.684 101.58 C 78.343 102.243 75.586 102.925 74.234 102.925 L 53.766 102.925 C 52.415 102.925 49.658 102.242 48.302 101.571 L 32.771 93.865 C 32.671 93.781 32.427 93.392 32.37 93.16 L 33.35 52.894 C 33.467 52.528 33.584 52.16 33.673 51.77 C 34.726 47.201 35.25 41.401 35.25 41.401 C 35.25 41.401 39.224 40.84 45.582 43.063 C 51.939 45.286 57.222 48.879 57.222 48.879 C 57.222 48.879 55.521 52.402 57.222 53.667 C 58.28 54.454 61.472 54.652 63.959 55.276 C 64.002 55.287 64.044 55.298 64.087 55.309 C 64.158 55.327 64.229 55.346 64.299 55.366 C 64.344 55.379 64.389 55.391 64.434 55.404 C 64.501 55.423 64.567 55.443 64.633 55.463 C 64.676 55.476 64.719 55.489 64.761 55.503 C 64.835 55.526 64.907 55.551 64.978 55.575 C 65.009 55.586 65.041 55.596 65.072 55.607 C 65.171 55.642 65.268 55.679 65.362 55.717 C 65.389 55.728 65.415 55.74 65.441 55.751 C 65.509 55.779 65.576 55.808 65.641 55.838 C 65.674 55.853 65.706 55.869 65.739 55.885 C 65.796 55.913 65.852 55.941 65.907 55.97 C 65.938 55.986 65.969 56.003 66 56.02 C 66.057 56.052 66.112 56.085 66.166 56.119 C 66.189 56.133 66.213 56.147 66.236 56.162 C 66.31 56.211 66.381 56.261 66.447 56.313 C 66.459 56.322 66.469 56.333 66.481 56.342 C 66.535 56.386 66.586 56.43 66.634 56.476 C 66.654 56.495 66.672 56.515 66.691 56.534 C 66.729 56.573 66.765 56.612 66.798 56.653 C 66.816 56.675 66.834 56.696 66.85 56.719 C 66.882 56.761 66.912 56.805 66.939 56.85 C 66.952 56.87 66.965 56.89 66.977 56.911 C 67.014 56.976 67.047 57.043 67.074 57.113 L 67.074 57.113 C 67.107 57.198 67.128 57.284 67.143 57.371 C 67.148 57.399 67.149 57.428 67.152 57.456 C 67.158 57.516 67.162 57.576 67.161 57.637 C 67.16 57.67 67.157 57.704 67.154 57.738 C 67.149 57.796 67.141 57.854 67.13 57.913 C 67.123 57.947 67.117 57.982 67.108 58.016 C 67.093 58.078 67.073 58.14 67.051 58.203 C 67.04 58.234 67.031 58.264 67.019 58.295 C 66.986 58.379 66.948 58.464 66.904 58.549 C 66.899 58.558 66.896 58.567 66.891 58.576 C 66.842 58.67 66.786 58.765 66.725 58.86 C 66.706 58.889 66.685 58.919 66.665 58.948 C 66.621 59.014 66.575 59.08 66.526 59.146 C 66.5 59.181 66.473 59.216 66.446 59.25 C 66.398 59.312 66.348 59.374 66.296 59.436 C 66.267 59.471 66.238 59.505 66.207 59.54 C 66.15 59.605 66.091 59.67 66.031 59.734 C 66.003 59.764 65.976 59.793 65.948 59.823 C 65.866 59.908 65.782 59.992 65.695 60.076 C 65.687 60.084 65.679 60.093 65.67 60.101 C 65.572 60.195 65.47 60.289 65.367 60.382 C 65.344 60.402 65.321 60.422 65.298 60.442 C 65.217 60.513 65.136 60.584 65.053 60.654 C 65.022 60.68 64.99 60.707 64.958 60.733 C 64.88 60.798 64.802 60.862 64.723 60.925 C 64.692 60.95 64.661 60.975 64.629 61 C 64.544 61.067 64.459 61.133 64.374 61.198 C 64.35 61.216 64.326 61.235 64.302 61.253 C 64.076 61.424 63.849 61.589 63.627 61.744 C 62.39 62.61 61.304 63.202 61.304 63.202 C 61.304 63.202 62.196 63.176 63.627 62.934 L 63.627 62.934 C 63.628 62.934 63.629 62.934 63.629 62.934 C 63.983 62.874 64.368 62.801 64.782 62.711 C 64.796 62.708 64.81 62.705 64.824 62.702 C 64.941 62.676 65.061 62.65 65.182 62.621 C 65.217 62.613 65.253 62.604 65.288 62.596 C 65.391 62.572 65.495 62.547 65.601 62.52 C 65.645 62.509 65.69 62.498 65.735 62.486 C 65.834 62.461 65.934 62.435 66.035 62.408 C 66.085 62.395 66.136 62.381 66.187 62.367 C 66.288 62.34 66.39 62.311 66.493 62.282 C 66.543 62.268 66.593 62.254 66.644 62.239 C 66.757 62.206 66.871 62.172 66.986 62.137 C 67.028 62.124 67.069 62.112 67.111 62.099 C 67.269 62.05 67.429 61.999 67.591 61.945 C 67.594 61.944 67.597 61.943 67.601 61.942 C 67.757 61.89 67.915 61.836 68.074 61.78 C 68.128 61.761 68.184 61.74 68.238 61.721 C 68.347 61.682 68.456 61.642 68.566 61.601 C 68.632 61.576 68.699 61.551 68.765 61.525 C 68.866 61.486 68.968 61.447 69.07 61.406 C 69.14 61.378 69.21 61.35 69.28 61.321 C 69.381 61.28 69.482 61.238 69.584 61.195 C 69.655 61.165 69.726 61.135 69.797 61.104 C 69.901 61.059 70.005 61.012 70.11 60.965 C 70.179 60.934 70.248 60.903 70.318 60.871 C 70.431 60.819 70.545 60.765 70.659 60.71 C 70.72 60.681 70.78 60.653 70.841 60.623 C 71.009 60.541 71.177 60.457 71.345 60.37 C 71.352 60.366 71.359 60.363 71.366 60.36 C 72.674 59.683 73.194 58.744 73.238 57.717 C 73.37 54.634 69.22 50.752 69.22 50.752 C 69.22 50.752 72.029 50.442 75.323 49.794 C 75.67 49.726 76.022 49.654 76.377 49.578 C 78.328 49.161 80.361 48.629 82.023 47.977 C 83.534 47.384 85.229 46.589 86.844 45.775 C 87.167 45.612 87.488 45.451 87.802 45.286 C 89.214 44.545 91.123 42.455 91.123 42.455 C 91.123 42.455 91.772 42.693 91.77 43.673 C 91.766 45.511 93.62 48.626 94.097 51.092 C 94.192 51.585 94.304 52.054 94.433 52.485 C 94.501 52.711 94.575 52.924 94.654 53.127 L 95.628 93.085 C 95.576 93.319 95.334 93.724 95.153 93.882 Z" stroke-linecap="round" />
</g>
		<g transform="matrix(1 0 0 1 -12.6983 5.3664)" id="Layer_1"  >
<polygon style="stroke: none; stroke-width: 1; stroke-dasharray: none; stroke-linecap: butt; stroke-dashoffset: 0; stroke-linejoin: miter; stroke-miterlimit: 4; fill: rgb(0,0,0); fill-rule: nonzero; opacity: 1;"  points="-7.732,1.0055 7.732,3.1295 7.732,-1.0055 -7.732,-3.1295 " />
</g>
		<g transform="matrix(1 0 0 1 13.5397 5.3664)" id="Layer_1"  >
<polygon style="stroke: none; stroke-width: 1; stroke-dasharray: none; stroke-linecap: butt; stroke-dashoffset: 0; stroke-linejoin: miter; stroke-miterlimit: 4; fill: rgb(0,0,0); fill-rule: nonzero; opacity: 1;"  points="-7.732,3.1295 7.732,1.0055 7.732,-3.1295 -7.732,-1.0055 " />
</g>
</g>
</g>
</svg>