<svg
  role="img"
  focusable="false"
  aria-hidden="true"
  xmlns="http://www.w3.org/2000/svg"
  viewBox="0 0 14 14"
>
  <!-- Existing diamond -->
  <path d="m 6.9459692,11.51385 ... 0.22515,-0.2666 z"/>

  <!-- S -->
  <path
    fill="currentColor"
    d="M4.8 4.8
       C4.8 4.2 5.3 3.8 6.1 3.8
       C6.8 3.8 7.3 4.1 7.4 4.7
       L6.8 4.8
       C6.7 4.5 6.5 4.4 6.1 4.4
       C5.7 4.4 5.5 4.5 5.5 4.8
       C5.5 5.1 5.8 5.2 6.4 5.3
       C7.2 5.4 7.6 5.7 7.6 6.3
       C7.6 7.0 7.0 7.4 6.1 7.4
       C5.2 7.4 4.7 7.0 4.6 6.3
       L5.2 6.2
       C5.3 6.6 5.6 6.8 6.1 6.8
       C6.6 6.8 6.9 6.6 6.9 6.3
       C6.9 6.0 6.7 5.9 6.0 5.8
       C5.2 5.7 4.8 5.4 4.8 4.8Z"
  />

  <!-- D -->
  <path
    fill="currentColor"
    d="M7.9 3.9
       L8.8 3.9
       C10.0 3.9 10.8 4.6 10.8 5.6
       C10.8 6.7 10.0 7.4 8.8 7.4
       L7.9 7.4 Z
       M8.6 4.5
       L8.6 6.8
       L8.8 6.8
       C9.5 6.8 10.1 6.4 10.1 5.6
       C10.1 4.9 9.5 4.5 8.8 4.5 Z"
  />
</svg>